<svg width="33" height="31" viewBox="0 0 33 31" fill="none" xmlns="http://www.w3.org/2000/svg">
<path d="M31.7358 25.1905C31.4167 25.0599 31.0495 25.2057 30.9154 25.5164C30.0351 27.5544 27.9999 28.8712 25.7304 28.8712C23.0073 28.8712 20.7305 26.9756 20.2166 24.468C20.2171 24.4584 20.2181 24.4489 20.2181 24.4391C20.2181 24.1703 20.1819 23.9097 20.1146 23.6612C20.1102 23.5726 20.1078 23.4836 20.1078 23.3941C20.1078 21.1031 21.5593 19.1366 23.6133 18.3204L25.1274 23.5594C25.2052 23.8286 25.4565 24.0045 25.7301 24.0045C25.7863 24.0045 25.8434 23.9971 25.9002 23.9815C26.2332 23.8901 26.4272 23.5531 26.3334 23.2287L24.8193 17.9892C25.116 17.9419 25.4202 17.9169 25.7304 17.9169C27.9675 17.9169 29.9914 19.2078 30.8863 21.2057C31.0247 21.5146 31.3939 21.6557 31.711 21.5209C32.0282 21.3861 32.1731 21.0264 32.0347 20.7175C30.9404 18.2748 28.4658 16.6964 25.7304 16.6964C25.3028 16.6964 24.8842 16.735 24.478 16.8081L24.4243 16.6223C24.2431 15.9951 24.1078 15.3571 24.0186 14.7129C24.0186 14.7127 24.0185 14.7124 24.0185 14.7122C23.9669 14.3393 23.9305 13.9645 23.9101 13.5885C23.9671 13.8683 24.2206 14.0793 24.5246 14.0793H25.3805C26.5655 14.0793 27.5296 13.1401 27.5296 11.9857C27.5296 10.8314 26.5655 9.89218 25.3805 9.89218H23.5013L18.6969 5.74486C18.9461 5.81534 19.2092 5.85391 19.4814 5.85391C21.0359 5.85391 22.3005 4.62198 22.3005 3.10774C22.3005 1.5935 21.0359 0.361572 19.4814 0.361572C17.927 0.361572 16.6624 1.5935 16.6624 3.10774C16.6624 3.62372 16.8094 4.10668 17.0645 4.51952C16.6163 4.32063 16.1259 4.21518 15.6186 4.21518C14.686 4.21518 13.8092 4.56901 13.1498 5.21137L8.02022 10.2082C8.01884 10.2096 8.01778 10.2112 8.0164 10.2125C7.99992 10.2289 7.98426 10.2463 7.96954 10.2646C7.96785 10.2668 7.96597 10.2687 7.96434 10.2708C7.96371 10.2716 7.96303 10.2723 7.96246 10.2731C7.63677 10.6951 7.45077 11.2006 7.41137 11.7458H6.18019C5.8342 11.7458 5.55374 12.0191 5.55374 12.356V13.1028C5.55374 14.3735 6.61495 15.4073 7.91942 15.4073H8.66215L8.3409 16.7586C8.03526 16.718 7.72347 16.6965 7.40661 16.6965C3.61554 16.6963 0.53125 19.7009 0.53125 23.394C0.53125 25.655 1.6875 27.6578 3.45411 28.8711H1.15771C0.811714 28.8711 0.53125 29.1444 0.53125 29.4814C0.53125 29.8184 0.811714 30.0917 1.15771 30.0917H7.40667C10.8058 30.0917 13.6363 27.6761 14.1854 24.5147C14.2236 24.816 14.4869 25.0493 14.8065 25.0493H19.0677C19.4782 26.6165 20.4574 27.9642 21.7778 28.8711H17.8006C17.4546 28.8711 17.1741 29.1444 17.1741 29.4814C17.1741 29.8184 17.4546 30.0917 17.8006 30.0917H25.7305C28.5055 30.0917 30.994 28.4816 32.0703 25.9897C32.2044 25.6791 32.0547 25.3213 31.7358 25.1905ZM23.8901 11.1126H25.3804C25.8746 11.1126 26.2767 11.5042 26.2767 11.9856C26.2767 12.467 25.8747 12.8587 25.3804 12.8587H24.5245C24.2004 12.8587 23.9338 13.0984 23.9014 13.4058C23.8939 13.2218 23.8901 13.0378 23.8901 12.8534V11.1126ZM22.6979 14.1866H16.4193C16.3189 14.07 16.2136 13.9568 16.1022 13.8481L14.1279 11.9248L16.729 9.39091L22.6552 13.5727C22.6652 13.7776 22.6794 13.9824 22.6979 14.1866ZM21.7734 15.4072L17.9348 18.7946L17.569 16.5805C17.5683 16.5762 17.5675 16.572 17.5667 16.5677C17.491 16.1644 17.3673 15.7758 17.2001 15.4072H21.7734ZM19.4814 1.58197C20.345 1.58197 21.0476 2.26638 21.0476 3.10762C21.0476 3.94886 20.345 4.63327 19.4814 4.63327C18.6179 4.63327 17.9153 3.94886 17.9153 3.10762C17.9153 2.26638 18.6178 1.58197 19.4814 1.58197ZM14.0357 6.07434C14.4585 5.66241 15.0206 5.43558 15.6186 5.43558C16.2165 5.43558 16.7786 5.66241 17.2016 6.0744L22.6373 10.777V12.0529L17.0313 8.09723C16.921 8.01942 16.7922 7.98122 16.664 7.98122C16.5026 7.98122 16.3421 8.04175 16.2208 8.15996L13.057 11.2421L10.9663 10.6798L9.66686 10.3303L14.0357 6.07434ZM7.91942 14.1867C7.30587 14.1866 6.80665 13.7004 6.80665 13.1027V12.9662H7.55859C7.69785 13.4159 7.92469 13.8324 8.21793 14.1867H7.91942ZM7.40667 28.8711C4.3064 28.8711 1.78416 26.4142 1.78416 23.394C1.78416 20.3738 4.3064 17.9169 7.40667 17.9169C7.62656 17.9169 7.84343 17.9296 8.05687 17.9537L6.79638 23.2564C6.75328 23.4376 6.79744 23.6282 6.91628 23.7738C7.03512 23.9195 7.21566 24.0043 7.40667 24.0043H12.9941C12.6816 26.7382 10.2952 28.8711 7.40667 28.8711ZM8.19475 22.7837L9.27746 18.229C11.2717 18.9165 12.7525 20.6704 12.9941 22.7837H8.19475ZM9.56168 17.0337L9.94626 15.4156L12.9488 17.1046L13.9348 21.2915C13.2523 19.2857 11.6212 17.6975 9.56168 17.0337ZM14.1089 16.5726C14.07 16.4074 13.9623 16.2654 13.8116 16.1805L9.75607 13.8993C9.23862 13.6082 8.8348 13.0343 8.70231 12.4016C8.62268 12.0215 8.64636 11.6615 8.76721 11.3545L10.5916 11.8451L12.9159 12.4702L15.2163 14.7112C15.7979 15.2777 16.1839 15.9933 16.3331 16.781L17.0943 21.388C17.0914 21.388 17.0887 21.3878 17.0859 21.3878H15.2429V21.3878L14.1089 16.5726ZM15.433 23.8288V22.6083H17.0859C17.9026 22.6083 18.5993 23.1184 18.8579 23.8288H15.433ZM18.9994 22.0259C18.8178 21.8889 18.6207 21.771 18.4107 21.675L18.1723 20.2318L22.9757 15.9931C23.0459 16.3152 23.1265 16.6354 23.2183 16.9529L23.2722 17.1393C21.116 17.9462 19.4795 19.7817 18.9994 22.0259Z" fill="#F06033"/>
</svg>
