<svg width="16" height="16" viewBox="0 0 16 16" fill="#F06033" xmlns="http://www.w3.org/2000/svg">
<path d="M15.9865 14.1475L15.3473 10.1424C15.3232 9.99102 15.2002 9.8916 15.0733 9.92036C14.9461 9.94912 14.8626 10.0952 14.8868 10.2467L15.526 14.2517C15.5617 14.4759 15.4028 14.6875 15.1862 14.6875H11.7178L13.9675 12.009C14.0086 11.96 14.0361 11.8885 14.0361 11.8117V4.91683L14.6789 8.94433C14.703 9.09572 14.8258 9.19517 14.9529 9.16638C15.0801 9.13762 15.1636 8.99155 15.1394 8.84008L14.0346 1.91761C14.0187 1.50577 13.7331 1.17635 13.3834 1.17635H11.3293V0.279046C11.3293 0.124901 11.2244 0 11.0949 0C10.9655 0 10.8606 0.124901 10.8606 0.279046V1.17631H9.29088V0.279046C9.29088 0.124901 9.18597 0 9.0565 0C8.92703 0 8.82213 0.124901 8.82213 0.279046V1.17631H7.25241V0.279046C7.25241 0.124901 7.1475 0 7.01803 0C6.88856 0 6.78366 0.124901 6.78366 0.279046V1.17631H5.21397V0.279046C5.21397 0.124901 5.10906 0 4.97959 0C4.85013 0 4.74522 0.124901 4.74522 0.279046V1.17631H3.17553V0.279046C3.17553 0.124901 3.07063 0 2.94116 0C2.81169 0 2.70678 0.124901 2.70678 0.279046V1.17631H0.652719C0.292813 1.17635 0 1.52493 0 1.95347V15.2229C0 15.6514 0.292813 16 0.652719 16H6.47116C6.60063 16 6.70553 15.8751 6.70553 15.721C6.70553 15.5668 6.60063 15.4419 6.47116 15.4419H0.652719C0.551313 15.4419 0.468781 15.3437 0.468781 15.2229V4.79956H13.5673V11.5325H10.9365C10.5766 11.5325 10.2838 11.8812 10.2838 12.3097V15.4419H7.56494C7.43547 15.4419 7.33056 15.5668 7.33056 15.7209C7.33056 15.8751 7.43547 16 7.56494 16H10.5182C10.5787 16 10.6393 15.9714 10.684 15.9183L11.249 15.2456H15.1863C15.6953 15.2456 16.0776 14.7179 15.9865 14.1475ZM0.468781 4.24143V1.95347C0.468781 1.83274 0.551313 1.73448 0.652719 1.73448H2.70678V2.98795C2.70678 3.1421 2.81169 3.267 2.94116 3.267C3.07063 3.267 3.17553 3.1421 3.17553 2.98795V1.73448H4.74522V2.98795C4.74522 3.1421 4.85013 3.267 4.97959 3.267C5.10906 3.267 5.21397 3.1421 5.21397 2.98795V1.73448H6.78366V2.98795C6.78366 3.1421 6.88856 3.267 7.01803 3.267C7.1475 3.267 7.25241 3.1421 7.25241 2.98795V1.73448H8.82213V2.98795C8.82213 3.1421 8.92703 3.267 9.0565 3.267C9.18597 3.267 9.29088 3.1421 9.29088 2.98795V1.73448H10.8606V2.98795C10.8606 3.1421 10.9655 3.267 11.0949 3.267C11.2244 3.267 11.3293 3.1421 11.3293 2.98795V1.73448H13.3834C13.4848 1.73448 13.5673 1.83274 13.5673 1.95347V4.24147H0.468781V4.24143ZM10.7526 15.0472V12.3097C10.7526 12.189 10.8351 12.0907 10.9365 12.0907H13.2358C13.0013 12.37 10.9876 14.7674 10.7526 15.0472Z"/>
</svg>
