<svg width="70" height="70" viewBox="0 0 70 70" fill="none" xmlns="http://www.w3.org/2000/svg">
<g clip-path="url(#clip0)">
<path d="M63.0662 39.9913L52.6083 39.2441L45.6965 27.7304L42.2412 21.9652V20.3684C42.2422 18.6354 40.8382 17.2297 39.1052 17.2287C38.7169 17.2281 38.3319 17.3002 37.9703 17.4402L28.0326 21.2736L28.7835 18.7534C29.3763 16.6348 28.4144 14.3891 26.4721 13.3562L18.6743 9.16708C18.1071 8.86266 17.4006 9.05706 17.0689 9.60874L5.631 27.9248L5.3896 27.7849C4.81175 27.4527 4.07422 27.6524 3.74257 28.2303C3.73509 28.2425 3.72869 28.2548 3.72174 28.2676L0.140887 35.0091C-0.167798 35.5912 0.0474267 36.3127 0.623675 36.6315L44.1734 60.7693C44.3523 60.8681 44.5531 60.9199 44.7577 60.9199H62.7586C66.756 60.9162 69.9961 57.6766 69.9999 53.6786V47.4366C69.9871 43.5251 66.967 40.2823 63.0662 39.9913ZM50.0859 39.7328L48.7075 40.1926L37.9084 26.1517L40.6844 24.0673L50.0859 39.7328ZM18.5461 11.8379L25.3302 15.4791C26.2707 15.9763 26.7407 17.0583 26.4624 18.0848L25.4654 21.4451L18.5376 17.2906L16.1386 15.8508L18.5461 11.8379ZM11.4004 23.3565L12.0183 22.3909L15.989 25.3442C18.0099 26.8615 19.0417 29.3603 18.6802 31.8619L18.5296 35.3498L7.7432 29.1328L11.4004 23.3565ZM62.7586 58.5065H45.0679L2.82666 35.0924L5.2657 30.5064L45.2586 53.5179C45.4423 53.6236 45.6501 53.6792 45.8621 53.6786H67.5859C67.5859 56.3447 65.4246 58.5065 62.7586 58.5065ZM67.5859 51.2647H46.1841L37.9062 46.4988L40.6892 43.6613C41.149 43.1791 41.1309 42.4148 40.6481 41.955C40.1754 41.5043 39.4299 41.5117 38.9658 41.9716L35.746 45.2544L31.1595 42.6114L35.7593 38.9317C36.2795 38.5151 36.3639 37.7552 35.9473 37.2345C35.5307 36.7143 34.7708 36.6299 34.2506 37.0465L28.9122 41.3179L24.9826 39.0583L30.9448 34.0894C31.4575 33.6627 31.5269 32.9017 31.1007 32.389C30.674 31.8763 29.9125 31.8068 29.3998 32.233L22.7523 37.7739L20.8864 36.6999L21.0818 32.0669C21.5288 28.7291 20.1301 25.4115 17.4289 23.4013L13.3166 20.3438L14.8702 17.9048L25.5535 24.3146C25.6971 24.3973 25.8563 24.4486 26.0208 24.4657C26.0496 24.4657 26.0747 24.4753 26.1041 24.4774C26.1329 24.4801 26.1511 24.486 26.1741 24.486C26.3231 24.4865 26.4715 24.4593 26.6109 24.4053L38.8366 19.6901C39.0603 19.6047 39.3108 19.6341 39.5089 19.7687C39.7076 19.9048 39.8256 20.1307 39.824 20.3721V21.6998L35.4789 24.9581C34.9459 25.3586 34.8386 26.1154 35.2391 26.6479C35.2418 26.6516 35.2445 26.6553 35.2472 26.6585L47.3163 42.3486C47.6282 42.7572 48.166 42.9217 48.6536 42.7577L52.0459 41.6266L62.8916 42.4015C65.5309 42.597 67.5758 44.7898 67.5859 47.4366V51.2647Z" fill="white"/>
<path d="M7.24129 44.0234H1.20697C0.540466 44.0234 0 44.5639 0 45.2304C0 45.8969 0.540466 46.4374 1.20697 46.4374H7.24129C7.90779 46.4374 8.44826 45.8969 8.44826 45.2304C8.44826 44.5639 7.90779 44.0234 7.24129 44.0234Z" fill="white"/>
<path d="M0 52.4719C0 53.1384 0.540466 53.6788 1.20697 53.6788H16.8965C17.563 53.6788 18.1035 53.1384 18.1035 52.4719C18.1035 51.8054 17.563 51.2649 16.8965 51.2649H1.20697C0.540466 51.2649 0 51.8054 0 52.4719Z" fill="white"/>
<path d="M30.1727 58.5066H1.20697C0.540466 58.5066 0 59.0465 0 59.713C0 60.3795 0.540466 60.92 1.20697 60.92H30.1727C30.8392 60.92 31.3791 60.3795 31.3791 59.713C31.3791 59.0465 30.8392 58.5066 30.1727 58.5066Z" fill="white"/>
</g>
<defs>
<clipPath id="clip0">
</clipPath>
</defs>
</svg>
