<svg width="72" height="52" viewBox="0 0 72 52" xmlns="http://www.w3.org/2000/svg">
<path d="M69.9673 11.9442H66.4534V10.1872C66.4534 7.9231 64.618 6.08768 62.3539 6.08768C61.7448 6.09105 61.1444 6.23161 60.597 6.49881V4.91639C60.597 2.32885 58.4993 0.231201 55.9118 0.231201C53.3242 0.231201 51.2266 2.32885 51.2266 4.91639V11.9442H46.5414V10.7729C46.5499 8.84067 44.9905 7.26732 43.0583 7.25869C42.1805 7.25473 41.3334 7.58094 40.6849 8.17259C39.3608 6.95444 37.3239 6.95444 35.9997 8.17259C34.6756 6.95444 32.6387 6.95444 31.3145 8.17259C29.887 6.8704 27.6742 6.97201 26.372 8.39953C25.7805 9.04799 25.4543 9.89513 25.4581 10.7729V11.9442H20.7729V4.91639C20.7729 2.32885 18.6752 0.231201 16.0877 0.231201C13.5002 0.231201 11.4025 2.32885 11.4025 4.91639V6.49881C10.8551 6.23161 10.2546 6.09105 9.64556 6.08768C7.38145 6.08768 5.54603 7.9231 5.54603 10.1872V11.9442H2.03214C1.38529 11.9442 0.86084 12.4686 0.86084 13.1155V20.1432C0.86084 20.7901 1.38529 21.3145 2.03214 21.3145H5.54603V23.0715C5.54603 25.3356 7.38145 27.171 9.64556 27.171C10.2546 27.1676 10.8551 27.0271 11.4025 26.7599V28.3423C11.4025 30.9299 13.5002 33.0275 16.0877 33.0275C18.6752 33.0275 20.7729 30.9299 20.7729 28.3423V21.3145H23.1155V25.2302C23.1117 26.784 23.7295 28.275 24.8314 29.3707L27.8007 32.3411V51.7682H30.1432V31.8562C30.1432 31.5455 30.0197 31.2477 29.8001 31.0281L26.4876 27.7145C25.8304 27.0545 25.4604 26.1616 25.4581 25.2302V17.8006H32.3183C32.7618 17.7946 33.182 17.9983 33.4522 18.35C33.4604 18.3617 33.4697 18.3734 33.4779 18.3863C33.5281 18.4662 33.5675 18.5525 33.5951 18.6428C33.6172 18.715 33.6321 18.7891 33.6396 18.8642C33.6478 18.9377 33.6478 19.0121 33.6396 19.0856C33.6369 19.1249 33.6318 19.164 33.6243 19.2027C33.5978 19.3261 33.5523 19.4446 33.4896 19.5541C33.2854 19.9167 32.9021 20.1416 32.4858 20.1432H28.972C28.3251 20.1432 27.8007 20.6677 27.8007 21.3145V23.6571C27.8005 24.1615 28.1233 24.6092 28.6018 24.7687L31.1787 25.6296C33.2706 26.3242 34.8284 29.4902 34.8284 31.8562H37.171C37.171 28.634 35.1658 24.4864 31.9248 23.4065L30.1432 22.8126V22.4858H32.4858C33.4716 22.4763 34.4075 22.051 35.0627 21.3145H45.3701V25.6097C45.3686 26.3697 45.1222 27.1091 44.6673 27.718L42.0905 31.1534C41.9384 31.3562 41.8562 31.6028 41.8562 31.8562V51.7682H44.1988V32.2462L46.5414 29.1236C47.2995 28.1088 47.7104 26.8764 47.7127 25.6097V21.3145H51.2266V28.3423C51.2266 30.9299 53.3242 33.0275 55.9118 33.0275C58.4993 33.0275 60.597 30.9299 60.597 28.3423V26.7599C61.1444 27.0271 61.7448 27.1676 62.3539 27.171C64.618 27.171 66.4534 25.3356 66.4534 23.0715V21.3145H69.9673C70.6142 21.3145 71.1386 20.7901 71.1386 20.1432V13.1155C71.1386 12.4686 70.6142 11.9442 69.9673 11.9442ZM5.54603 18.9719H3.20343V14.2868H5.54603V18.9719ZM11.4025 23.0715C11.4025 24.0417 10.6158 24.8284 9.64556 24.8284C8.67529 24.8284 7.88862 24.0417 7.88862 23.0715V10.1872C7.88862 9.21695 8.67529 8.43027 9.64556 8.43027C10.6158 8.43027 11.4025 9.21695 11.4025 10.1872V23.0715ZM18.4303 28.3423C18.4303 29.6362 17.3815 30.6849 16.0877 30.6849C14.7938 30.6849 13.7451 29.6362 13.7451 28.3423V4.91639C13.7451 3.62254 14.7938 2.57379 16.0877 2.57379C17.3815 2.57379 18.4303 3.62254 18.4303 4.91639V28.3423ZM24.2868 15.4581C23.6399 15.4581 23.1155 15.9825 23.1155 16.6293V18.9719H20.7729V14.2868H25.4581C25.4594 14.5081 25.4816 14.7291 25.5248 14.9462C25.5377 15.0153 25.56 15.0786 25.5764 15.1453C25.6033 15.2496 25.6232 15.3573 25.6584 15.4581H24.2868ZM30.1432 14.2868C30.1432 14.9336 29.6188 15.4581 28.972 15.4581C28.3251 15.4581 27.8007 14.9336 27.8007 14.2868V10.7729C27.8007 10.126 28.3251 9.60157 28.972 9.60157C29.6188 9.60157 30.1432 10.126 30.1432 10.7729V14.2868ZM34.8284 14.2868C34.8284 14.9336 34.304 15.4581 33.6571 15.4581C33.0103 15.4581 32.4858 14.9336 32.4858 14.2868V10.7729C32.4858 10.126 33.0103 9.60157 33.6571 9.60157C34.304 9.60157 34.8284 10.126 34.8284 10.7729V14.2868ZM41.8562 10.7729C41.8562 10.126 42.3807 9.60157 43.0275 9.60157C43.6744 9.60157 44.1988 10.126 44.1988 10.7729V14.2868C44.1988 14.9336 43.6744 15.4581 43.0275 15.4581C42.3807 15.4581 41.8562 14.9336 41.8562 14.2868V10.7729ZM37.171 10.7729C37.171 10.126 37.6955 9.60157 38.3423 9.60157C38.9892 9.60157 39.5136 10.126 39.5136 10.7729V14.2868C39.5136 14.9336 38.9892 15.4581 38.3423 15.4581C37.6955 15.4581 37.171 14.9336 37.171 14.2868V10.7729ZM51.2266 18.9719H35.9997C35.9997 18.9602 35.9997 18.9509 35.9997 18.9391C35.9987 18.7062 35.9744 18.4738 35.9271 18.2457C35.9201 18.2141 35.9049 18.1848 35.8978 18.152C35.8767 18.0665 35.8463 17.9869 35.8194 17.9037C35.7699 17.7536 35.71 17.6074 35.6401 17.4657C35.6062 17.3954 35.5898 17.3157 35.5511 17.2478C35.5644 17.2387 35.5773 17.2289 35.5898 17.2185C35.6437 17.1834 35.6905 17.1412 35.742 17.1014C35.8299 17.0358 35.9224 16.9749 36.0044 16.9011C36.0723 16.962 36.1508 17.01 36.2234 17.0651C36.2961 17.1201 36.3675 17.1822 36.446 17.2314C36.5565 17.2996 36.6707 17.3618 36.788 17.4176C36.8677 17.4563 36.9426 17.502 37.0223 17.5348C37.159 17.5872 37.2991 17.6307 37.4416 17.6648C37.5154 17.6847 37.5845 17.7128 37.6606 17.728C38.1111 17.8201 38.5757 17.8201 39.0264 17.728C39.1025 17.7128 39.1716 17.6847 39.2454 17.6648C39.3879 17.6307 39.528 17.5872 39.6647 17.5348C39.7479 17.5008 39.8228 17.4551 39.899 17.4176C40.0167 17.3618 40.1312 17.2996 40.2422 17.2314C40.3195 17.1799 40.3898 17.1213 40.4635 17.0651C40.5373 17.0088 40.6146 16.962 40.6826 16.9011C40.7505 16.962 40.829 17.01 40.9016 17.0651C40.9742 17.1201 41.0457 17.1822 41.1242 17.2314C41.2347 17.2996 41.3489 17.3618 41.4662 17.4176C41.5458 17.4563 41.6208 17.502 41.7004 17.5348C41.8372 17.5872 41.9773 17.6307 42.1198 17.6648C42.1935 17.6847 42.2626 17.7128 42.3388 17.728C44.2356 18.1135 46.0856 16.8885 46.4711 14.9919C46.5183 14.7598 46.5418 14.5237 46.5414 14.2868H51.2266V18.9719ZM58.2544 28.3423C58.2544 29.6362 57.2056 30.6849 55.9118 30.6849C54.6179 30.6849 53.5692 29.6362 53.5692 28.3423V4.91639C53.5692 3.62254 54.6179 2.57379 55.9118 2.57379C57.2056 2.57379 58.2544 3.62254 58.2544 4.91639V28.3423ZM64.1108 23.0715C64.1108 24.0417 63.3242 24.8284 62.3539 24.8284C61.3836 24.8284 60.597 24.0417 60.597 23.0715V10.1872C60.597 9.21695 61.3836 8.43027 62.3539 8.43027C63.3242 8.43027 64.1108 9.21695 64.1108 10.1872V23.0715ZM68.796 18.9719H66.4534V14.2868H68.796V18.9719Z" fill="#F06033"/>
</svg>
