<svg width="39" height="33" viewBox="0 0 39 33" fill="none" xmlns="http://www.w3.org/2000/svg">
<g clip-path="url(#clip0)">
<path d="M37.5 10.1879H35.6418V9.37493C35.6418 8.32733 34.6713 7.47808 33.474 7.47808C33.1519 7.47964 32.8344 7.54468 32.5449 7.66831V6.93613C32.5449 5.73888 31.4357 4.76831 30.0674 4.76831C28.6992 4.76831 27.5899 5.73888 27.5899 6.93613V10.1879H25.1124V9.6459C25.1169 8.75188 24.2923 8.0239 23.2705 8.0199C22.8064 8.01807 22.3584 8.16901 22.0155 8.44276C21.3153 7.87913 20.2382 7.87913 19.538 8.44276C18.8378 7.87913 17.7607 7.87913 17.0605 8.44276C16.3057 7.84025 15.1355 7.88726 14.4469 8.54777C14.1341 8.84781 13.9616 9.23978 13.9636 9.6459V10.1879H11.4861V6.93613C11.4861 5.73888 10.3769 4.76831 9.00863 4.76831C7.64034 4.76831 6.53112 5.73888 6.53112 6.93613V7.66831C6.24164 7.54468 5.92413 7.47964 5.60205 7.47808C4.4048 7.47808 3.43423 8.32733 3.43423 9.37493V10.1879H1.5761C1.23405 10.1879 0.956726 10.4305 0.956726 10.7298V13.9815C0.956726 14.2808 1.23405 14.5235 1.5761 14.5235H3.43423V15.3364C3.43423 16.384 4.4048 17.2333 5.60205 17.2333C5.92413 17.2317 6.24164 17.1667 6.53112 17.043V17.7752C6.53112 18.9725 7.64034 19.943 9.00863 19.943C10.3769 19.943 11.4861 18.9725 11.4861 17.7752V14.5235H12.7249V16.3353C12.7229 17.0542 13.0496 17.7441 13.6323 18.2511L15.2024 19.6255V28.6143H16.4411V19.4011C16.4411 19.2573 16.3758 19.1195 16.2597 19.0179L14.5081 17.4847C14.1605 17.1793 13.9649 16.7662 13.9636 16.3353V12.8976H17.5913C17.8258 12.8949 18.048 12.9891 18.1909 13.1518C18.1952 13.1572 18.2002 13.1626 18.2045 13.1686C18.2311 13.2056 18.2519 13.2455 18.2665 13.2873C18.2781 13.3207 18.286 13.355 18.29 13.3897C18.2943 13.4237 18.2943 13.4581 18.29 13.4922C18.2886 13.5104 18.2859 13.5285 18.2819 13.5464C18.2679 13.6035 18.2438 13.6583 18.2107 13.7089C18.1027 13.8767 17.9 13.9808 17.6799 13.9815H15.8218C15.4797 13.9815 15.2024 14.2242 15.2024 14.5235V15.6074C15.2023 15.8408 15.373 16.0479 15.626 16.1217L16.9887 16.5201C18.0949 16.8414 18.9187 18.3063 18.9187 19.4011H20.1574C20.1574 17.9102 19.097 15.9911 17.3832 15.4914L16.4411 15.2167V15.0655H17.6799C18.2012 15.061 18.6961 14.8643 19.0425 14.5235H24.493V16.5108C24.4923 16.8625 24.362 17.2046 24.1214 17.4864L22.7588 19.0759C22.6784 19.1697 22.6349 19.2838 22.6349 19.4011V28.6143H23.8737V19.5816L25.1124 18.1367C25.5133 17.6672 25.7306 17.097 25.7318 16.5108V14.5235H27.5899V17.7752C27.5899 18.9725 28.6992 19.943 30.0674 19.943C31.4357 19.943 32.5449 18.9725 32.5449 17.7752V17.043C32.8344 17.1667 33.1519 17.2317 33.474 17.2333C34.6713 17.2333 35.6418 16.384 35.6418 15.3364V14.5235H37.5C37.842 14.5235 38.1193 14.2808 38.1193 13.9815V10.7298C38.1193 10.4305 37.842 10.1879 37.5 10.1879ZM3.43423 13.4396H2.19548V11.2718H3.43423V13.4396ZM6.53112 15.3364C6.53112 15.7854 6.11513 16.1494 5.60205 16.1494C5.08898 16.1494 4.67299 15.7854 4.67299 15.3364V9.37493C4.67299 8.92598 5.08898 8.56199 5.60205 8.56199C6.11513 8.56199 6.53112 8.92598 6.53112 9.37493V15.3364ZM10.2474 17.7752C10.2474 18.3739 9.6928 18.8591 9.00863 18.8591C8.32445 18.8591 7.76987 18.3739 7.76987 17.7752V6.93613C7.76987 6.33747 8.32445 5.85222 9.00863 5.85222C9.6928 5.85222 10.2474 6.33747 10.2474 6.93613V17.7752ZM13.3443 11.8137C13.0022 11.8137 12.7249 12.0564 12.7249 12.3557V13.4396H11.4861V11.2718H13.9636C13.9643 11.3742 13.9761 11.4764 13.9989 11.5769C14.0058 11.6089 14.0175 11.6381 14.0262 11.669C14.0404 11.7173 14.051 11.7671 14.0696 11.8137H13.3443ZM16.4411 11.2718C16.4411 11.5711 16.1638 11.8137 15.8218 11.8137C15.4797 11.8137 15.2024 11.5711 15.2024 11.2718V9.6459C15.2024 9.34661 15.4797 9.10395 15.8218 9.10395C16.1638 9.10395 16.4411 9.34661 16.4411 9.6459V11.2718ZM18.9187 11.2718C18.9187 11.5711 18.6413 11.8137 18.2993 11.8137C17.9572 11.8137 17.6799 11.5711 17.6799 11.2718V9.6459C17.6799 9.34661 17.9572 9.10395 18.2993 9.10395C18.6413 9.10395 18.9187 9.34661 18.9187 9.6459V11.2718ZM22.6349 9.6459C22.6349 9.34661 22.9122 9.10395 23.2543 9.10395C23.5963 9.10395 23.8737 9.34661 23.8737 9.6459V11.2718C23.8737 11.5711 23.5963 11.8137 23.2543 11.8137C22.9122 11.8137 22.6349 11.5711 22.6349 11.2718V9.6459ZM20.1574 9.6459C20.1574 9.34661 20.4347 9.10395 20.7768 9.10395C21.1188 9.10395 21.3962 9.34661 21.3962 9.6459V11.2718C21.3962 11.5711 21.1188 11.8137 20.7768 11.8137C20.4347 11.8137 20.1574 11.5711 20.1574 11.2718V9.6459ZM27.5899 13.4396H19.538C19.538 13.4342 19.538 13.4298 19.538 13.4244C19.5375 13.3166 19.5246 13.2091 19.4996 13.1036C19.4959 13.0889 19.4879 13.0754 19.4841 13.0602C19.473 13.0207 19.4569 12.9838 19.4426 12.9453C19.4165 12.8759 19.3848 12.8082 19.3479 12.7426C19.3299 12.7101 19.3212 12.6733 19.3008 12.6418C19.3079 12.6376 19.3147 12.6331 19.3212 12.6283C19.3497 12.612 19.3745 12.5925 19.4018 12.5741C19.4482 12.5437 19.4972 12.5156 19.5405 12.4814C19.5764 12.5096 19.6179 12.5318 19.6563 12.5573C19.6947 12.5828 19.7325 12.6115 19.774 12.6342C19.8325 12.6658 19.8929 12.6946 19.9549 12.7204C19.997 12.7383 20.0366 12.7594 20.0787 12.7746C20.1511 12.7989 20.2252 12.819 20.3005 12.8348C20.3395 12.844 20.376 12.857 20.4163 12.864C20.6545 12.9066 20.9002 12.9066 21.1385 12.864C21.1788 12.857 21.2153 12.844 21.2543 12.8348C21.3297 12.819 21.4037 12.7989 21.4761 12.7746C21.52 12.7589 21.5597 12.7378 21.5999 12.7204C21.6622 12.6946 21.7227 12.6658 21.7814 12.6342C21.8223 12.6104 21.8595 12.5833 21.8985 12.5573C21.9375 12.5313 21.9784 12.5096 22.0143 12.4814C22.0502 12.5096 22.0917 12.5318 22.1301 12.5573C22.1685 12.5828 22.2063 12.6115 22.2478 12.6342C22.3063 12.6658 22.3666 12.6946 22.4287 12.7204C22.4708 12.7383 22.5104 12.7594 22.5525 12.7746C22.6249 12.7989 22.6989 12.819 22.7743 12.8348C22.8133 12.844 22.8498 12.857 22.8901 12.864C23.8931 13.0424 24.8714 12.4756 25.0753 11.598C25.1002 11.4906 25.1127 11.3814 25.1124 11.2718H27.5899V13.4396ZM31.3062 17.7752C31.3062 18.3739 30.7516 18.8591 30.0674 18.8591C29.3833 18.8591 28.8287 18.3739 28.8287 17.7752V6.93613C28.8287 6.33747 29.3833 5.85222 30.0674 5.85222C30.7516 5.85222 31.3062 6.33747 31.3062 6.93613V17.7752ZM34.4031 15.3364C34.4031 15.7854 33.9871 16.1494 33.474 16.1494C32.9609 16.1494 32.5449 15.7854 32.5449 15.3364V9.37493C32.5449 8.92598 32.9609 8.56199 33.474 8.56199C33.9871 8.56199 34.4031 8.92598 34.4031 9.37493V15.3364ZM36.8806 13.4396H35.6418V11.2718H36.8806V13.4396Z" fill="#F06033"/>
</g>
<defs>
<clipPath id="clip0">
</clipPath>
</defs>
</svg>
