<svg width="23" height="23" viewBox="0 0 23 23" fill="none" xmlns="http://www.w3.org/2000/svg">
<path d="M1.14431 3.66C1.34919 3.54273 1.61083 3.61268 1.72881 3.81624L3.67021 7.16542C3.84679 7.14325 4.02419 7.14351 4.19833 7.16606C4.19906 7.16619 4.19974 7.16619 4.20047 7.16631C4.32072 7.18206 4.43947 7.20793 4.55496 7.24546L4.77966 7.31838L5.29478 7.45556C5.55693 7.47931 5.83848 7.41731 6.08472 7.27605L8.36678 5.9657C8.65471 5.8004 8.75364 5.43307 8.58741 5.14688L8.16536 4.42027C8.16532 4.42023 8.16528 4.42018 8.16528 4.4201L6.29101 1.20257C6.1726 0.999267 6.24238 0.738993 6.44696 0.621259C6.6515 0.50361 6.91335 0.572923 7.0318 0.776266L8.69186 3.62609L8.8869 3.51418C9.72243 3.03465 16.6293 1.7569 18.0054 1.50569C18.0083 1.50513 18.0113 1.50467 18.0142 1.50416C18.8357 1.37179 19.6134 1.71065 19.9952 2.36791L20.6994 3.58056C21.1885 4.42248 20.8532 5.53515 19.9558 6.11194L20.1241 6.40179C20.2693 6.65164 20.3078 6.94267 20.2327 7.22137C20.1576 7.50007 19.9777 7.73294 19.7264 7.87718L19.6372 7.92837C19.4697 8.02449 19.2839 8.07355 19.0956 8.07355C19.0012 8.07355 18.9062 8.06121 18.8125 8.03623C18.5322 7.96156 18.2979 7.78285 18.1527 7.533L17.986 7.24584L16.9778 7.82438C18.3404 8.2763 19.5625 9.11949 20.4675 10.2433C20.6838 10.5119 20.8798 10.7947 21.0555 11.089C21.0669 11.1052 21.0769 11.1223 21.0859 11.1399C21.5997 12.0165 21.9301 12.9932 22.0537 14.0024C22.0559 14.016 22.0576 14.0296 22.0585 14.0433C22.0916 14.3259 22.1088 14.6108 22.1088 14.8969C22.1088 16.8316 21.363 18.5963 20.1424 19.9224C20.1215 19.951 20.0973 19.977 20.0699 19.9997C19.276 20.8384 18.2894 21.4949 17.1809 21.8981C17.1633 21.9055 17.1455 21.9118 17.1273 21.9169C16.3404 22.1964 15.4934 22.3491 14.6112 22.3491C13.6277 22.3491 12.6881 22.1596 11.8267 21.8159C11.8045 21.8088 11.7827 21.8002 11.7619 21.7895C10.705 21.3562 9.76879 20.6897 9.01866 19.8545C8.99272 19.8317 8.96969 19.8059 8.95004 19.7777C7.80663 18.4692 7.11361 16.7619 7.11361 14.8968C7.11361 14.6218 7.12979 14.3455 7.15993 14.073C7.16044 14.067 7.16117 14.0611 7.16194 14.0551C7.16601 14.0193 7.16939 13.9833 7.17397 13.9476C7.17448 13.9434 7.17508 13.9393 7.17573 13.9352L7.22491 13.6241L7.10989 13.426C6.87675 13.508 6.63758 13.5484 6.40355 13.5484C5.75809 13.5484 5.15334 13.2458 4.83185 12.6924L4.12744 11.4797L2.47175 8.62924C2.23767 8.22617 2.3997 7.69601 2.83301 7.44739C2.83622 7.44556 2.83951 7.44395 2.84277 7.44212L0.98716 4.24092C0.869095 4.03741 0.93947 3.77731 1.14431 3.66ZM11.3693 3.69544L11.0105 5.02664L11.6232 4.92095L11.9903 3.55882C11.7748 3.60545 11.5672 3.65111 11.3693 3.69544ZM14.4907 3.04269L14.1056 4.47129L14.7183 4.36559L15.1077 2.92088C14.902 2.96126 14.696 3.00193 14.4907 3.04269ZM18.8942 7.10764C18.925 7.1607 18.9748 7.19865 19.0342 7.21444C19.0937 7.23035 19.1559 7.22218 19.2092 7.19155L19.2984 7.14036C19.2984 7.14036 19.2984 7.14036 19.2984 7.14036C19.3518 7.10972 19.39 7.06028 19.4059 7.00118C19.4218 6.94204 19.4136 6.88025 19.3828 6.82724L19.216 6.54003L18.7273 6.82047L18.8942 7.10764ZM16.876 8.6883L17.8501 10.3668L19.7686 10.725C19.0237 9.81441 18.0329 9.10196 16.876 8.6883ZM15.4342 10.174C15.0584 10.174 14.6924 9.98027 14.4913 9.63417L14.3245 9.34696L13.3352 9.91478C12.9934 10.1109 12.6012 10.1784 12.2309 10.105C12.0657 10.0722 11.8788 10.1062 11.7182 10.1984L10.5346 10.8776C10.1397 11.1042 9.83544 11.4626 9.69974 11.8609C9.66639 11.9588 9.59837 12.0413 9.50834 12.0929L9.10004 12.3272L9.27465 12.6279C9.57427 13.1436 9.3958 13.8055 8.87692 14.1033L8.87688 14.1033L8.78775 14.1544C8.6556 14.2303 8.51387 14.2749 8.37114 14.2914L9.95295 15.8774L12.0627 15.4066L12.2873 14.7196L12.7679 13.2495L12.0369 12.1454C11.907 11.9492 11.9617 11.6854 12.1591 11.5562C12.3565 11.4272 12.622 11.4814 12.7519 11.6777L13.4692 12.761H15.7516L17.0759 10.7355L16.4342 9.62966C16.3419 9.77182 16.2165 9.8913 16.0648 9.97831L15.9757 10.0295C15.805 10.1275 15.6185 10.174 15.4342 10.174ZM15.7214 8.92841L15.5546 8.64124L15.2565 8.81225L15.0659 8.92168L15.2326 9.20885C15.2962 9.31833 15.4375 9.35598 15.5477 9.29284L15.6369 9.24165C15.6369 9.24161 15.6369 9.24161 15.6369 9.24161C15.6903 9.21098 15.7285 9.16153 15.7444 9.10243C15.7603 9.04333 15.7522 8.98147 15.7214 8.92841ZM12.8976 15.6061L13.7509 16.2224L14.6042 16.8386L16.3109 15.6061L15.659 13.6119H13.5494L12.8976 15.6061ZM20.4386 11.7158L17.7804 11.2195L16.4541 13.2481L17.1598 15.4067L18.8924 15.7933L19.2671 15.877L21.1815 13.923C21.0654 13.136 20.8103 12.3909 20.4386 11.7158ZM20.1024 18.6061C20.7971 17.5933 21.216 16.3794 21.2504 15.072L19.8554 16.4958L20.1024 18.6061ZM19.3476 19.5196L19.0168 16.6931L17.0205 16.2475L16.9231 16.2258L15.0463 17.5812V19.5836L17.0735 21.0278C17.9348 20.6848 18.7076 20.1673 19.3476 19.5196ZM14.6112 21.4983C15.1038 21.4983 15.5839 21.4443 16.0461 21.3427L14.5931 20.3076L12.9706 21.2943C13.4955 21.4273 14.0452 21.4983 14.6112 21.4983ZM11.9241 20.9333L14.1762 19.5637V17.5812L12.7945 16.5834L12.2993 16.2258L12.1644 16.2559L10.1924 16.696L9.75757 19.3979C10.3647 20.0442 11.1006 20.5696 11.9241 20.9333ZM9.03788 18.4833L9.35864 16.4902L7.97307 15.1009C8.01134 16.345 8.39743 17.5034 9.03788 18.4833ZM8.04469 13.3337C8.1083 13.4432 8.24965 13.4809 8.35989 13.4177L8.44901 13.3665C8.55907 13.3033 8.59696 13.1628 8.53343 13.0533L8.36665 12.7661L7.87795 13.0465L8.04469 13.3337ZM7.05081 12.5208L8.94798 11.4321C9.17037 10.8992 9.57671 10.4449 10.1065 10.1408L11.2901 9.46159C11.6332 9.26472 12.0268 9.19685 12.3985 9.27067C12.5624 9.30335 12.7477 9.26948 12.9071 9.178L14.2671 8.3976C14.2671 8.3976 14.2671 8.39756 14.2672 8.39756L14.6898 8.15503L17.9283 6.29656C17.9284 6.29648 17.9285 6.29639 17.9286 6.29635L19.1586 5.5905C19.1587 5.59046 19.1588 5.59042 19.1589 5.59037L19.4301 5.43473C19.9598 5.13076 20.2002 4.54345 19.999 4.08702C19.8181 4.43397 19.531 4.74228 19.1537 4.95877L12.6306 8.70213C12.2887 8.89828 11.8965 8.96576 11.5263 8.89232C11.3612 8.85931 11.1742 8.89347 11.0136 8.98568L9.83 9.66489C9.43514 9.89151 9.13086 10.2499 8.99516 10.6482C8.96181 10.7462 8.89379 10.8286 8.80376 10.8802L6.77431 12.0449C6.43848 12.2376 6.06678 12.3373 5.69769 12.3373C5.67106 12.3373 5.64448 12.3364 5.61789 12.3354C5.90702 12.7332 6.52949 12.82 7.05081 12.5208ZM4.86871 11.0543C4.99161 11.2659 5.20638 11.4116 5.47337 11.4646C5.76087 11.5218 6.07093 11.4662 6.34636 11.3081L8.24353 10.2193C8.46596 9.68646 8.87226 9.23208 9.40209 8.92802L10.5857 8.24881C10.9288 8.05193 11.3225 7.9842 11.6941 8.05793C11.858 8.09065 12.0433 8.05674 12.2027 7.96526L18.7258 4.22195C19.2873 3.89972 19.5241 3.2588 19.2537 2.79327C19.0519 2.44594 18.6211 2.26962 18.1553 2.34331C17.5169 2.45985 16.794 2.59525 16.0429 2.73949L15.4744 4.84836C15.4312 5.00847 15.2985 5.1291 15.1342 5.15744L13.5921 5.4235C13.5677 5.42775 13.5432 5.42975 13.5189 5.42975C13.3998 5.42975 13.2848 5.38031 13.2029 5.29134C13.1044 5.18416 13.0677 5.03447 13.1055 4.89427L13.5538 3.2314C13.3428 3.27442 13.1345 3.31731 12.9302 3.35977L12.3792 5.4038C12.3361 5.56391 12.2033 5.68454 12.039 5.71287L10.4969 5.97893C10.4725 5.98319 10.448 5.98519 10.4237 5.98519C10.3047 5.98519 10.1896 5.93575 10.1078 5.84678C10.0092 5.73959 9.97251 5.58991 10.0103 5.44971L10.4236 3.91661C9.84768 4.05847 9.44662 4.17544 9.31489 4.25101L9.12029 4.36266L9.32872 4.72148C9.7309 5.41384 9.49148 6.30252 8.79494 6.70244L6.78981 7.85374L7.40269 8.01696C7.63099 8.0778 7.76648 8.31106 7.70535 8.53797C7.65411 8.72804 7.4812 8.85343 7.29221 8.85343C7.25556 8.85343 7.21823 8.84871 7.18116 8.8388L5.13604 8.29412C5.01742 8.27825 4.90026 8.25251 4.78621 8.21545L4.53634 8.13435L4.05612 8.00645C3.79264 7.98058 3.5089 8.04206 3.26104 8.1843C3.23904 8.19694 3.228 8.21179 3.22307 8.22111L4.86871 11.0543Z" fill="#F06033"/>
</svg>
