<svg width="31" height="31" viewBox="0 0 31 31" fill="none" xmlns="http://www.w3.org/2000/svg">
<g clip-path="url(#clip0)">
<path d="M11.2707 11.1361C11.3787 11.0281 11.5279 10.9661 11.6812 10.9661C11.8338 10.9661 11.9836 11.0281 12.0916 11.1361C12.1996 11.2441 12.2617 11.3933 12.2617 11.5466C12.2617 11.6993 12.1996 11.8491 12.0916 11.957C11.9836 12.065 11.8339 12.1272 11.6812 12.1272C11.5279 12.1272 11.3787 12.065 11.2707 11.957C11.1621 11.8491 11.1006 11.6993 11.1006 11.5466C11.1006 11.3933 11.1621 11.2441 11.2707 11.1361Z" fill="#F06033"/>
<path d="M1.65083 4.58671C1.92874 4.42668 2.28364 4.52214 2.44367 4.79993L5.07705 9.37053C5.31658 9.34028 5.55721 9.34063 5.79342 9.3714C5.79441 9.37158 5.79534 9.37158 5.79633 9.37175C5.95943 9.39324 6.12051 9.42854 6.27718 9.47975L6.58197 9.57928L7.28069 9.76649C7.63629 9.79889 8.01819 9.71428 8.35219 9.5215L11.4477 7.73328C11.8382 7.50769 11.9724 7.0064 11.7469 6.61585L11.1745 5.62424C11.1744 5.62419 11.1743 5.62413 11.1743 5.62401L8.63201 1.23307C8.4714 0.955625 8.56605 0.600432 8.84355 0.439761C9.12099 0.279207 9.47619 0.373797 9.63686 0.651298L11.8886 4.54043L12.1532 4.38771C13.2865 3.7333 22.6552 1.98956 24.5219 1.64673C24.5259 1.64598 24.5298 1.64534 24.5338 1.64464C25.6481 1.464 26.703 1.92644 27.2208 2.8234L28.1762 4.4783C28.8396 5.62726 28.3847 7.14571 27.1675 7.93286L27.3958 8.32841C27.5926 8.66938 27.645 9.06655 27.5431 9.44689C27.4411 9.82722 27.1972 10.145 26.8562 10.3419L26.7353 10.4117C26.5081 10.5429 26.2561 10.6098 26.0006 10.6098C25.8726 10.6098 25.7437 10.593 25.6167 10.5589C25.2364 10.457 24.9186 10.2131 24.7217 9.87217L24.4955 9.48028L23.128 10.2698C24.9763 10.8865 26.634 12.0372 27.8615 13.5708C28.1549 13.9374 28.4209 14.3234 28.6591 14.725C28.6745 14.7472 28.6881 14.7704 28.7004 14.7945C29.3974 15.9908 29.8455 17.3237 30.0131 18.7009C30.0162 18.7194 30.0184 18.738 30.0197 18.7567C30.0645 19.1423 30.0878 19.5312 30.0878 19.9216C30.0878 22.5619 29.0762 24.9702 27.4205 26.7799C27.3923 26.8189 27.3594 26.8545 27.3223 26.8854C26.2453 28.0299 24.9071 28.9259 23.4034 29.4761C23.3797 29.4863 23.3555 29.4949 23.3307 29.5018C22.2634 29.8832 21.1146 30.0916 19.9178 30.0916C18.5838 30.0916 17.3092 29.8329 16.1409 29.3639C16.1107 29.3542 16.0812 29.3424 16.0529 29.3279C14.6193 28.7366 13.3494 27.827 12.3319 26.6872C12.2967 26.656 12.2655 26.6209 12.2388 26.5824C10.6879 24.7967 9.74782 22.4668 9.74782 19.9215C9.74782 19.5462 9.76977 19.1692 9.81065 18.7973C9.81135 18.7891 9.81233 18.781 9.81338 18.7729C9.8189 18.7239 9.82348 18.6748 9.82969 18.6261C9.83039 18.6204 9.83121 18.6148 9.83208 18.6092L9.89879 18.1846L9.74277 17.9143C9.42654 18.0262 9.10212 18.0814 8.78467 18.0814C7.90914 18.0814 7.08883 17.6684 6.65275 16.9131L5.69726 15.2581L3.45142 11.3682C3.13391 10.8181 3.35369 10.0946 3.94144 9.75534C3.9458 9.75284 3.95027 9.75064 3.95468 9.74814L1.43767 5.37949C1.27752 5.10176 1.37298 4.7468 1.65083 4.58671ZM15.5204 4.63508L15.0337 6.45175L15.8647 6.30751L16.3628 4.44863C16.0705 4.51227 15.7888 4.57457 15.5204 4.63508ZM19.7544 3.74428L19.232 5.69387L20.0631 5.54963L20.5914 3.57803C20.3124 3.63314 20.0329 3.68865 19.7544 3.74428ZM25.7275 9.29168C25.7693 9.36409 25.8368 9.41588 25.9174 9.43742C25.9981 9.45914 26.0824 9.44799 26.1548 9.40618L26.2758 9.33633C26.2758 9.33633 26.2758 9.33633 26.2758 9.33633C26.3482 9.29452 26.4 9.22705 26.4215 9.14639C26.4432 9.06568 26.4321 8.98137 26.3903 8.90902L26.164 8.51707L25.5011 8.89978L25.7275 9.29168ZM22.9899 11.4488L24.3112 13.7395L26.9136 14.2282C25.9031 12.9856 24.5591 12.0133 22.9899 11.4488ZM21.0342 13.4763C20.5245 13.4763 20.0279 13.2119 19.7552 12.7396L19.529 12.3477L18.187 13.1226C17.7234 13.3903 17.1914 13.4823 16.6892 13.3821C16.465 13.3374 16.2115 13.3837 15.9936 13.5096L14.3882 14.4365C13.8526 14.7458 13.4398 15.2349 13.2557 15.7785C13.2105 15.9121 13.1182 16.0246 12.9961 16.0951L12.4423 16.4148L12.6791 16.8251C13.0856 17.529 12.8435 18.4322 12.1396 18.8386L12.1396 18.8386L12.0187 18.9084C11.8394 19.0119 11.6472 19.0728 11.4536 19.0953L13.5992 21.2597L16.461 20.6172L16.7656 19.6797L17.4175 17.6734L16.426 16.1667C16.2497 15.8989 16.3239 15.5389 16.5917 15.3626C16.8594 15.1865 17.2196 15.2606 17.3958 15.5284L18.3688 17.0068H21.4648L23.261 14.2426L22.3906 12.7335C22.2654 12.9275 22.0953 13.0905 21.8896 13.2093L21.7687 13.2791C21.5372 13.4129 21.2842 13.4763 21.0342 13.4763ZM21.4237 11.7765L21.1975 11.3846L20.7932 11.6179L20.5346 11.7673L20.7608 12.1592C20.847 12.3086 21.0387 12.36 21.1881 12.2738L21.3091 12.204C21.3091 12.2039 21.3091 12.2039 21.3092 12.2039C21.3816 12.1621 21.4333 12.0946 21.4549 12.014C21.4765 11.9333 21.4655 11.8489 21.4237 11.7765ZM17.5934 20.8895L18.7509 21.7305L19.9084 22.5715L22.2234 20.8895L21.3392 18.168H18.4776L17.5934 20.8895ZM27.8224 15.5804L24.2167 14.9031L22.4177 17.6716L23.3749 20.6173L25.725 21.1449L26.2333 21.2591L28.83 18.5926C28.6725 17.5186 28.3266 16.5018 27.8224 15.5804ZM27.3663 24.9835C28.3086 23.6014 28.8768 21.9448 28.9235 20.1606L27.0313 22.1037L27.3663 24.9835ZM26.3424 26.2302L25.8937 22.3728L23.1859 21.7648L23.0538 21.7351L20.508 23.5848V26.3175L23.2577 28.2884C24.4262 27.8203 25.4744 27.1141 26.3424 26.2302ZM19.9179 28.9305C20.586 28.9305 21.2372 28.8568 21.8641 28.7181L19.8933 27.3056L17.6925 28.6521C18.4045 28.8337 19.15 28.9305 19.9179 28.9305ZM16.273 28.1594L19.3278 26.2903V23.5848L17.4536 22.2232L16.7819 21.7352L16.5989 21.7763L13.924 22.3769L13.3342 26.0641C14.1578 26.9461 15.1559 27.6632 16.273 28.1594ZM12.358 24.816L12.7931 22.096L10.9136 20.2C10.9655 21.8978 11.4892 23.4786 12.358 24.816ZM11.0108 17.7884C11.0971 17.9378 11.2888 17.9893 11.4383 17.9029L11.5592 17.8332C11.7085 17.7468 11.7599 17.5551 11.6737 17.4057L11.4475 17.0137L10.7846 17.3964L11.0108 17.7884ZM9.66264 16.679L12.236 15.1932C12.5377 14.4661 13.0889 13.846 13.8076 13.431L15.413 12.5041C15.8783 12.2354 16.4123 12.1428 16.9164 12.2436C17.1388 12.2881 17.3902 12.2419 17.6063 12.1171L19.4511 11.0521C19.4511 11.0521 19.4511 11.052 19.4512 11.052L20.0245 10.721L24.4173 8.18481C24.4174 8.18469 24.4176 8.18458 24.4177 8.18452L26.0861 7.22125C26.0862 7.22119 26.0864 7.22114 26.0865 7.22108L26.4544 7.00867C27.1728 6.59384 27.499 5.79235 27.2261 5.16947C26.9807 5.64294 26.5912 6.06369 26.0795 6.35914L17.2312 11.4677C16.7676 11.7354 16.2356 11.8274 15.7333 11.7272C15.5094 11.6822 15.2558 11.7288 15.0379 11.8546L13.4324 12.7815C12.8968 13.0908 12.4841 13.5799 12.3 14.1235C12.2548 14.2571 12.1625 14.3696 12.0404 14.4401L9.28758 16.0295C8.83205 16.2925 8.32786 16.4286 7.82721 16.4286C7.79109 16.4286 7.75503 16.4274 7.71897 16.426C8.11115 16.9688 8.9555 17.0873 9.66264 16.679ZM6.70275 14.6776C6.86946 14.9664 7.16078 15.1652 7.52294 15.2376C7.91291 15.3156 8.33349 15.2397 8.70709 15.024L11.2805 13.5381C11.5822 12.811 12.1333 12.1909 12.852 11.7759L14.4576 10.849C14.923 10.5803 15.4569 10.4879 15.961 10.5885C16.1832 10.6332 16.4347 10.5869 16.6508 10.4621L25.4991 5.35359C26.2607 4.91386 26.5819 4.0392 26.2151 3.40389C25.9414 2.92989 25.357 2.68926 24.7251 2.78984C23.8592 2.94888 22.8786 3.13365 21.8598 3.33049L21.0887 6.20845C21.0302 6.42696 20.8501 6.59158 20.6273 6.63025L18.5355 6.99334C18.5024 6.99915 18.4691 7.00187 18.4362 7.00187C18.2747 7.00187 18.1186 6.9344 18.0076 6.81298C17.874 6.66671 17.8241 6.46244 17.8754 6.27111L18.4835 4.0018C18.1974 4.06051 17.9148 4.11904 17.6377 4.17699L16.8903 6.96645C16.8318 7.18496 16.6517 7.34958 16.4289 7.38825L14.3371 7.75134C14.304 7.75715 14.2708 7.75988 14.2378 7.75988C14.0763 7.75988 13.9202 7.6924 13.8092 7.57099C13.6756 7.42472 13.6257 7.22044 13.677 7.02911L14.2376 4.93691C13.4564 5.1305 12.9124 5.29013 12.7337 5.39325L12.4698 5.54562L12.7525 6.0353C13.298 6.98016 12.9733 8.19294 12.0284 8.73871L9.30861 10.3099L10.1399 10.5326C10.4496 10.6157 10.6334 10.934 10.5505 11.2436C10.481 11.503 10.2464 11.6742 9.99008 11.6742C9.94037 11.6742 9.88974 11.6677 9.83945 11.6542L7.06537 10.9109C6.90447 10.8892 6.74554 10.8541 6.59085 10.8035L6.25192 10.6928L5.60052 10.5183C5.24312 10.483 4.85826 10.5669 4.52205 10.761C4.4922 10.7782 4.47722 10.7985 4.47055 10.8112L6.70275 14.6776Z" fill="#F06033"/>
<path d="M0.534614 2.94968C0.642618 2.84167 0.792371 2.77954 0.945086 2.77954C1.0978 2.77954 1.24755 2.84167 1.35556 2.94968C1.46356 3.05762 1.52563 3.20738 1.52563 3.36009C1.52563 3.51339 1.4635 3.66256 1.35556 3.77057C1.24755 3.87857 1.0978 3.94064 0.945086 3.94064C0.79243 3.94064 0.642618 3.87857 0.534614 3.77057C0.42661 3.6625 0.364536 3.51287 0.364536 3.36009C0.364536 3.20743 0.426668 3.05762 0.534614 2.94968Z" fill="#F06033"/>
</g>
<defs>
<clipPath id="clip0">
</clipPath>
</defs>
</svg>
