<svg viewBox="0 0 16 16" fill="#F06033" xmlns="http://www.w3.org/2000/svg">
<path d="M5.2492 11.0021C5.90814 11.9468 6.56602 12.7918 7.00202 13.336C7.06549 13.4152 7.12496 13.4886 7.18255 13.5594H5.86683C5.71955 13.5594 5.60017 13.6808 5.60017 13.8306C5.60017 13.9803 5.71955 14.1017 5.86683 14.1017H10.1335C10.2808 14.1017 10.4001 13.9803 10.4001 13.8306C10.4001 13.6808 10.2808 13.5594 10.1335 13.5594H8.81775C8.87534 13.4886 8.93481 13.4151 8.99856 13.336C9.43428 12.7936 10.0919 11.9468 10.7511 11.0021C11.4051 10.0836 11.9938 9.11875 12.5127 8.11501C13.0572 7.02763 13.3335 6.12494 13.3335 5.43185C13.3353 3.99168 12.7733 2.61002 11.7716 1.59188C11.7047 1.52134 11.6056 1.49299 11.5124 1.51775C11.4191 1.5425 11.3462 1.61648 11.3218 1.71127C11.2973 1.80606 11.325 1.90689 11.3943 1.97502C12.2959 2.8916 12.8018 4.13538 12.8002 5.43182C12.8002 6.0387 12.5436 6.85867 12.0375 7.86877C11.5304 8.84925 10.955 9.79169 10.3159 10.6889C9.66578 11.6214 9.0159 12.4569 8.58525 12.9938C8.44206 13.1722 8.31325 13.33 8.20337 13.4634C8.15209 13.523 8.07803 13.5571 8.00018 13.5571C7.92234 13.5571 7.84828 13.523 7.79699 13.4634C7.68712 13.33 7.55834 13.1722 7.41512 12.9938C6.98446 12.4572 6.33458 11.6217 5.68445 10.6889C5.04536 9.79169 4.47001 8.84925 3.96285 7.86877C3.4562 6.85867 3.20019 6.0387 3.20019 5.43182C3.20004 3.46771 4.35517 1.69398 6.13355 0.92752C7.32849 0.418006 8.67462 0.418006 9.86956 0.92752C9.95731 0.965334 10.0582 0.952719 10.1343 0.894344C10.2104 0.836002 10.2501 0.740798 10.2384 0.644608C10.2268 0.548419 10.1656 0.465863 10.0778 0.428048C7.36224 -0.736644 4.23229 0.557126 3.08607 3.31811C2.8081 3.98689 2.66554 4.70578 2.66688 5.43182C2.66688 6.12491 2.94316 7.02763 3.4877 8.11634C4.00651 9.11964 4.59523 10.084 5.2492 11.0021Z"/>
<path d="M8.00012 2.98371C8.1474 2.98371 8.26678 2.86232 8.26678 2.71256C8.26678 2.56279 8.1474 2.44141 8.00012 2.44141C6.72793 2.44137 5.63286 3.35522 5.38464 4.62401C5.13642 5.8928 5.80421 7.16318 6.97955 7.65827C8.1549 8.15335 9.5105 7.7352 10.2173 6.65958C10.9241 5.58396 10.7853 4.1504 9.88572 3.23564C9.81875 3.16516 9.71963 3.13688 9.62638 3.1617C9.53316 3.18651 9.46034 3.26055 9.43594 3.35534C9.41153 3.45017 9.43934 3.55096 9.50866 3.61906C10.2283 4.35085 10.3394 5.49765 9.77403 6.35817C9.20862 7.2187 8.12415 7.55324 7.18387 7.15724C6.24358 6.76123 5.70933 5.74494 5.90783 4.72989C6.10633 3.71484 6.98237 2.98374 8.00012 2.98371Z"/>
<path d="M15.8996 14.799L14.2596 11.8162C14.1113 11.5511 13.8339 11.3882 13.534 11.3902H11.6335C11.4862 11.3902 11.3668 11.5115 11.3668 11.6613C11.3668 11.8111 11.4862 11.9325 11.6335 11.9325H13.534C13.6408 11.9304 13.7404 11.987 13.7945 12.0805L15.434 15.0633C15.4787 15.1409 15.4777 15.2372 15.4316 15.3139C15.3771 15.4054 15.2786 15.4602 15.1735 15.4576H0.826774C0.721711 15.4602 0.623335 15.4053 0.568898 15.3139C0.522772 15.2372 0.521866 15.1409 0.566491 15.0633L2.20597 12.0805C2.26006 11.987 2.35956 11.9304 2.46622 11.9325H4.36676C4.51404 11.9325 4.63341 11.8111 4.63341 11.6613C4.63341 11.5115 4.51404 11.3902 4.36676 11.3902H2.46625C2.16625 11.3882 1.88856 11.551 1.74012 11.8162L0.100365 14.799C-0.0363545 15.0445 -0.0331983 15.3458 0.108646 15.5884C0.258084 15.8466 0.532116 16.0037 0.826774 16H15.1735C15.468 16.0036 15.742 15.8466 15.8914 15.5884C16.0332 15.3458 16.0364 15.0445 15.8996 14.799Z"/>
<path d="M13.0669 12.7456H12.0002C11.9475 12.7457 11.8961 12.7615 11.8522 12.7912L11.0522 13.3335C10.9297 13.4166 10.8966 13.585 10.9783 13.7096C11.0601 13.8342 11.2257 13.8678 11.3482 13.7847L12.0802 13.288H13.0669C13.2141 13.288 13.3335 13.1666 13.3335 13.0168C13.3335 12.867 13.2141 12.7456 13.0669 12.7456Z"/>
<path d="M11.4668 14.6442C11.4668 14.794 11.5862 14.9153 11.7335 14.9153H13.8668C14.0141 14.9153 14.1335 14.794 14.1335 14.6442C14.1335 14.4944 14.0141 14.373 13.8668 14.373H11.7335C11.5862 14.373 11.4668 14.4944 11.4668 14.6442Z"/>
<path d="M4.80007 13.8303C4.91763 13.8304 5.02142 13.7523 5.05557 13.6379C5.08973 13.5235 5.04617 13.3998 4.94835 13.3335L4.14835 12.7912C4.10441 12.7615 4.05282 12.7456 4.00007 12.7456H2.93341C2.78612 12.7456 2.66675 12.867 2.66675 13.0168C2.66675 13.1665 2.78616 13.2879 2.93341 13.2879H3.92007L4.65288 13.7847C4.69648 13.8143 4.7477 13.8302 4.80007 13.8303Z"/>
<path d="M2.13348 14.373C1.9862 14.373 1.86682 14.4944 1.86682 14.6442C1.86682 14.794 1.9862 14.9153 2.13348 14.9153H4.26683C4.41411 14.9153 4.53349 14.794 4.53349 14.6442C4.53349 14.4944 4.41411 14.373 4.26683 14.373H2.13348Z"/>
</svg>
