<svg width="36" height="36" viewBox="0 0 36 36" fill="none" xmlns="http://www.w3.org/2000/svg">
<path d="M16.0251 19.8816H17.1284V20.9849H16.0251V19.8816Z" fill="#F06033"/>
<path d="M18.2316 19.8816H19.3349V20.9849H18.2316V19.8816Z" fill="#F06033"/>
<path d="M16.0251 17.1234C16.0251 17.4507 16.1222 17.7707 16.304 18.0428C16.4859 18.315 16.7443 18.5271 17.0467 18.6523C17.3491 18.7776 17.6819 18.8104 18.0029 18.7465C18.3239 18.6827 18.6188 18.525 18.8502 18.2936C19.0817 18.0622 19.2393 17.7673 19.3031 17.4463C19.367 17.1252 19.3342 16.7925 19.209 16.4901C19.0837 16.1877 18.8716 15.9292 18.5995 15.7474C18.3273 15.5656 18.0074 15.4685 17.68 15.4685C17.2411 15.4685 16.8202 15.6429 16.5099 15.9532C16.1995 16.2636 16.0251 16.6845 16.0251 17.1234ZM17.68 16.5718C17.7891 16.5718 17.8958 16.6041 17.9865 16.6647C18.0772 16.7254 18.1479 16.8115 18.1897 16.9123C18.2314 17.0131 18.2424 17.124 18.2211 17.231C18.1998 17.338 18.1473 17.4363 18.0701 17.5135C17.993 17.5906 17.8947 17.6432 17.7877 17.6644C17.6807 17.6857 17.5697 17.6748 17.4689 17.633C17.3681 17.5913 17.282 17.5206 17.2214 17.4299C17.1608 17.3392 17.1284 17.2325 17.1284 17.1234C17.1284 16.9771 17.1865 16.8368 17.29 16.7333C17.3934 16.6299 17.5337 16.5718 17.68 16.5718Z" fill="#F06033"/>
<path d="M4.68633 16.6644L3.03143 17.7676L3.64374 18.6855L4.99249 17.7853L6.34123 18.6844L6.95354 17.7665L5.29864 16.6633C5.20788 16.6029 5.10129 16.5708 4.99232 16.571C4.88335 16.5712 4.77687 16.6037 4.68633 16.6644Z" fill="#F06033"/>
<path d="M4.68633 18.8709L3.03143 19.9742L3.64374 20.8921L4.99249 19.9918L6.34123 20.891L6.95354 19.9731L5.29864 18.8698C5.20788 18.8095 5.10129 18.7774 4.99232 18.7776C4.88335 18.7778 4.77687 18.8103 4.68633 18.8709Z" fill="#F06033"/>
<path d="M4.68633 21.0774L3.03143 22.1807L3.64374 23.0986L4.99249 22.1984L6.34123 23.0975L6.95354 22.1796L5.29864 21.0763C5.20788 21.016 5.10129 20.9839 4.99232 20.9841C4.88335 20.9843 4.77687 21.0168 4.68633 21.0774Z" fill="#F06033"/>
<path d="M4.68633 23.284L3.03143 24.3872L3.64374 25.3052L4.99249 24.4049L6.34123 25.3041L6.95354 24.3861L5.29864 23.2829C5.20788 23.2226 5.10129 23.1905 4.99232 23.1907C4.88335 23.1909 4.77687 23.2233 4.68633 23.284Z" fill="#F06033"/>
<path d="M32.5741 14.3652H28.161C27.7221 14.3652 27.3012 14.5396 26.9908 14.8499C26.6805 15.1603 26.5061 15.5812 26.5061 16.0201V19.3299H21.4311L20.5733 15.4685H22.6447C22.791 15.4685 22.9313 15.4103 23.0348 15.3069C23.1382 15.2034 23.1963 15.0631 23.1963 14.9168V13.2619H29.8159C30.2548 13.2619 30.6758 13.0876 30.9861 12.7772C31.2965 12.4669 31.4708 12.0459 31.4708 11.607V9.40051C31.4708 9.25421 31.4127 9.1139 31.3093 9.01045C31.2058 8.907 31.0655 8.84888 30.9192 8.84888H4.44084C4.29454 8.84888 4.15423 8.907 4.05077 9.01045C3.94732 9.1139 3.8892 9.25421 3.8892 9.40051V11.607C3.8892 12.0459 4.06356 12.4669 4.37391 12.7772C4.68427 13.0876 5.1052 13.2619 5.5441 13.2619H12.1637V14.9168C12.1637 15.0631 12.2218 15.2034 12.3253 15.3069C12.4287 15.4103 12.569 15.4685 12.7153 15.4685H14.7856L13.9289 19.3299H8.8539V16.0201C8.8539 15.5812 8.67954 15.1603 8.36919 14.8499C8.05884 14.5396 7.63791 14.3652 7.199 14.3652H2.78594C2.34703 14.3652 1.9261 14.5396 1.61575 14.8499C1.3054 15.1603 1.13104 15.5812 1.13104 16.0201V25.9495C1.13104 26.3884 1.3054 26.8093 1.61575 27.1197C1.9261 27.43 2.34703 27.6044 2.78594 27.6044H7.199C7.63791 27.6044 8.05884 27.43 8.36919 27.1197C8.67954 26.8093 8.8539 26.3884 8.8539 25.9495V23.1913H26.5061V25.9495C26.5061 26.3884 26.6805 26.8093 26.9908 27.1197C27.3012 27.43 27.7221 27.6044 28.161 27.6044H32.5741C33.013 27.6044 33.4339 27.43 33.7443 27.1197C34.0546 26.8093 34.229 26.3884 34.229 25.9495V16.0201C34.229 15.5812 34.0546 15.1603 33.7443 14.8499C33.4339 14.5396 33.013 14.3652 32.5741 14.3652ZM4.99247 11.607V9.95214H9.40553V11.0554H10.5088V9.95214H11.6121V11.0554H12.7153V9.95214H20.4382V11.0554H21.5414V9.95214H24.8512V11.0554H25.9545V9.95214H30.3676V11.607C30.3676 11.7533 30.3094 11.8937 30.206 11.9971C30.1025 12.1006 29.9622 12.1587 29.8159 12.1587H5.5441C5.3978 12.1587 5.25749 12.1006 5.15404 11.9971C5.05059 11.8937 4.99247 11.7533 4.99247 11.607ZM13.267 13.2619H22.0931V14.3652H13.267V13.2619ZM7.75063 25.9495C7.75063 26.0958 7.69251 26.2361 7.58906 26.3395C7.48561 26.443 7.3453 26.5011 7.199 26.5011H2.78594C2.63964 26.5011 2.49933 26.443 2.39588 26.3395C2.29243 26.2361 2.23431 26.0958 2.23431 25.9495V16.0201C2.23431 15.8738 2.29243 15.7335 2.39588 15.63C2.49933 15.5266 2.63964 15.4685 2.78594 15.4685H7.199C7.3453 15.4685 7.48561 15.5266 7.58906 15.63C7.69251 15.7335 7.75063 15.8738 7.75063 16.0201V25.9495ZM8.8539 22.0881V20.4332H14.3702C14.4957 20.4331 14.6174 20.3903 14.7153 20.3118C14.8132 20.2333 14.8814 20.1237 14.9086 20.0012L15.9148 15.4685H19.4452L20.4525 20.0012C20.4797 20.1235 20.5477 20.233 20.6454 20.3115C20.743 20.39 20.8645 20.4329 20.9898 20.4332H26.5061V22.0881H8.8539ZM33.1257 25.9495C33.1257 26.0958 33.0676 26.2361 32.9642 26.3395C32.8607 26.443 32.7204 26.5011 32.5741 26.5011H28.161C28.0147 26.5011 27.8744 26.443 27.771 26.3395C27.6675 26.2361 27.6094 26.0958 27.6094 25.9495V16.0201C27.6094 15.8738 27.6675 15.7335 27.771 15.63C27.8744 15.5266 28.0147 15.4685 28.161 15.4685H32.5741C32.7204 15.4685 32.8607 15.5266 32.9642 15.63C33.0676 15.7335 33.1257 15.8738 33.1257 16.0201V25.9495Z" fill="#F06033"/>
<path d="M30.0614 16.6644L28.4065 17.7676L29.0188 18.6855L30.3676 17.7853L31.7163 18.6844L32.3286 17.7665L30.6737 16.6633C30.5829 16.6029 30.4764 16.5708 30.3674 16.571C30.2584 16.5712 30.1519 16.6037 30.0614 16.6644Z" fill="#F06033"/>
<path d="M30.0614 18.8709L28.4065 19.9742L29.0188 20.8921L30.3676 19.9918L31.7163 20.891L32.3286 19.9731L30.6737 18.8698C30.5829 18.8095 30.4764 18.7774 30.3674 18.7776C30.2584 18.7778 30.1519 18.8103 30.0614 18.8709Z" fill="#F06033"/>
<path d="M30.0614 21.0774L28.4065 22.1807L29.0188 23.0986L30.3676 22.1984L31.7163 23.0975L32.3286 22.1796L30.6737 21.0763C30.5829 21.016 30.4764 20.9839 30.3674 20.9841C30.2584 20.9843 30.1519 21.0168 30.0614 21.0774Z" fill="#F06033"/>
<path d="M30.0614 23.284L28.4065 24.3872L29.0188 25.3052L30.3676 24.4049L31.7163 25.3041L32.3286 24.3861L30.6737 23.2829C30.5829 23.2226 30.4764 23.1905 30.3674 23.1907C30.2584 23.1909 30.1519 23.2233 30.0614 23.284Z" fill="#F06033"/>
</svg>
