<svg width="37" height="36" viewBox="0 0 37 36" xmlns="http://www.w3.org/2000/svg">
<g clip-path="url(#clip0)">
<path d="M1.4415 26.2727L3.88965 26.8638C3.94271 26.8765 3.99685 26.8829 4.05126 26.8829H18.0258C18.4067 26.8829 18.7153 26.5734 18.7153 26.192V7.58713C18.7153 7.20579 18.4067 6.89624 18.0258 6.89624C17.6449 6.89624 17.3362 7.20579 17.3362 7.58713V18.3836H16.6742C15.3449 18.3836 14.0189 18.0868 12.8144 17.5238L12.2274 7.54665C12.2048 7.16585 11.8776 6.87465 11.4983 6.89759C11.1183 6.91999 10.8282 7.24708 10.8508 7.62788L11.4326 17.516L6.66397 19.4893C6.52957 19.5449 6.39112 19.5865 6.25025 19.614C6.24809 19.6146 6.24621 19.6148 6.24405 19.6151C6.10992 19.641 5.97309 19.6542 5.83464 19.6542C5.83356 19.6542 5.83248 19.6542 5.83141 19.6542L4.77447 19.6529C4.77285 19.6529 4.77124 19.6529 4.76935 19.6529C3.25398 19.6529 1.89806 20.6145 1.39464 22.0472L0.95263 23.3054C0.926503 23.3799 0.914382 23.4574 0.914382 23.5348C0.914113 23.5348 0.913844 23.5348 0.913574 23.5348V25.6013C0.913574 25.9205 1.13175 26.198 1.4415 26.2727ZM4.13314 25.5012L2.29266 25.0569V24.4284L3.82662 24.8283C3.88318 24.8432 3.94163 24.8505 4.00035 24.8505H17.3362V25.5012H4.13314ZM2.69534 22.506C3.00482 21.6254 3.83793 21.0344 4.76935 21.0344H4.77258L5.82952 21.036H5.83464C5.93403 21.036 6.03261 21.0309 6.13093 21.0228L7.20483 22.0991C7.33951 22.2337 7.51594 22.3012 7.69236 22.3012C7.86879 22.3012 8.04548 22.2337 8.17989 22.0991C8.44924 21.8292 8.44924 21.3917 8.17989 21.1218L7.63984 20.5804L8.50069 20.2242L9.58267 21.3083C9.71735 21.4433 9.89378 21.5107 10.0702 21.5107C10.2466 21.5107 10.4231 21.4433 10.5577 21.3083C10.8271 21.0387 10.8271 20.6012 10.5577 20.3314L9.88085 19.6531L10.5284 19.3852L11.5982 20.4571C11.7329 20.5921 11.9093 20.6595 12.0858 20.6595C12.2622 20.6595 12.4386 20.5921 12.5733 20.4571C12.8426 20.1875 12.8426 19.75 12.5733 19.4802L11.9085 18.8141L12.1227 18.7253C13.5376 19.4065 15.1041 19.7654 16.6742 19.7654H17.3362V23.4687H4.08843L2.50248 23.0552L2.69534 22.506Z" fill="#FFF"/>
<path d="M19.7057 26.4478C19.7203 26.5252 19.7483 26.5986 19.7868 26.6656C19.7868 26.6656 19.7865 26.6658 19.7863 26.6658L20.8176 28.4554C20.9431 28.6735 21.1732 28.8011 21.4148 28.8011C21.4797 28.8011 21.5454 28.7917 21.6101 28.7728L24.0251 28.0579C24.077 28.0425 24.1274 28.0209 24.1743 27.9936L35.3204 21.5457C35.7354 21.3058 36.0323 20.9182 36.1562 20.4546C36.2801 19.9909 36.2165 19.5065 35.977 19.0909L35.5148 18.2888L33.0061 13.9354L29.5546 4.65154C29.4218 4.29395 29.0248 4.11205 28.6679 4.24537C28.311 4.37842 28.1295 4.77622 28.2622 5.13381L31.5306 13.9243L30.865 14.3092C29.7364 14.962 28.4683 15.3663 27.1716 15.491L23.5303 7.3058C23.3751 6.95739 22.9676 6.80059 22.6199 6.95604C22.2721 7.11149 22.1156 7.51981 22.2708 7.8685L25.9415 16.1198L22.7475 20.2818C22.6594 20.3963 22.5614 20.501 22.4542 20.5949C22.4512 20.5971 22.4485 20.5992 22.4459 20.6017C22.3419 20.6915 22.2296 20.7719 22.1089 20.8413L21.1928 21.3697C19.8776 22.1281 19.1813 23.6421 19.4609 25.1367L19.7057 26.4478ZM34.8242 20.097C34.7954 20.2041 34.727 20.2937 34.6308 20.3493L23.5559 26.756L21.7401 27.2933L21.4266 26.749L22.9544 26.3269C23.011 26.3109 23.0654 26.2883 23.116 26.2591L34.6653 19.578L34.7827 19.7818C34.8382 19.8778 34.8528 19.9898 34.8242 20.097ZM21.8805 22.5674L22.7965 22.039C22.8844 21.9886 22.9689 21.934 23.0514 21.8768L24.5182 22.2706C24.578 22.2868 24.6381 22.2943 24.6971 22.2943C25.0017 22.2943 25.2802 22.0908 25.3629 21.7821C25.4615 21.4137 25.2431 21.0348 24.8751 20.936L24.1371 20.7379L24.7052 19.9979L26.1831 20.3947C26.2429 20.4108 26.303 20.4187 26.362 20.4187C26.6663 20.4187 26.9451 20.2149 27.0275 19.9062C27.1261 19.5378 26.9079 19.1589 26.54 19.0601L25.6153 18.8118L26.0425 18.2556L27.504 18.648C27.5638 18.6639 27.6239 18.6717 27.6829 18.6717C27.9872 18.6717 28.266 18.468 28.3484 18.1592C28.447 17.7909 28.2288 17.412 27.8609 17.3132L26.9527 17.0695L27.0941 16.8854C28.6593 16.7667 30.1948 16.2925 31.5548 15.5058L32.128 15.1741L33.976 18.3814L22.503 25.0182L20.9235 25.4546L20.8163 24.8822C20.6444 23.9635 21.0722 23.0335 21.8805 22.5674Z" fill="#FFF"/>
<path d="M8.40641 29.7576H1.60312C1.22225 29.7576 0.913574 30.0671 0.913574 30.4485C0.913574 30.8301 1.22225 31.1393 1.60312 31.1393H8.40641C8.78728 31.1393 9.09595 30.8301 9.09595 30.4485C9.09595 30.0671 8.78728 29.7576 8.40641 29.7576Z" fill="#FFF"/>
<path d="M11.877 29.7576C11.6957 29.7576 11.5179 29.8315 11.3895 29.96C11.2612 30.0884 11.1874 30.2666 11.1874 30.4485C11.1874 30.6301 11.2612 30.8085 11.3895 30.9369C11.5179 31.0654 11.6957 31.1393 11.877 31.1393C12.0585 31.1393 12.2363 31.0654 12.3645 30.9369C12.4927 30.8085 12.5665 30.6301 12.5665 30.4485C12.5665 30.2666 12.4927 30.0884 12.3645 29.96C12.2363 29.8315 12.0585 29.7576 11.877 29.7576Z" fill="#FFF"/>
<path d="M35.5254 28.1641H28.7221C28.3412 28.1641 28.0325 28.4736 28.0325 28.855C28.0325 29.2366 28.3412 29.5458 28.7221 29.5458H35.5254C35.9062 29.5458 36.2149 29.2366 36.2149 28.855C36.2149 28.4736 35.9062 28.1641 35.5254 28.1641Z" fill="#FFF"/>
<path d="M25.3688 30.9321H18.5655C18.1847 30.9321 17.876 31.2417 17.876 31.623C17.876 32.0046 18.1847 32.3139 18.5655 32.3139H25.3688C25.7497 32.3139 26.0584 32.0046 26.0584 31.623C26.0584 31.2417 25.7497 30.9321 25.3688 30.9321Z" fill="#FFF"/>
</g>
</svg>
