<svg width="88" height="88" viewBox="0 0 88 88" xmlns="http://www.w3.org/2000/svg">
<g clip-path="url(#clip0)">
<path d="M79.2834 50.2748L66.1363 49.3356L57.4472 34.8612L53.1033 27.6135V25.6061C53.1047 23.4274 51.3396 21.6603 49.1609 21.659C48.6728 21.6583 48.1888 21.749 47.7342 21.9249L35.2411 26.7441L36.185 23.5758C36.9303 20.9124 35.7211 18.0892 33.2793 16.7908L23.4764 11.5244C22.7634 11.1417 21.8751 11.3861 21.4582 12.0797L7.07909 35.1055L6.77563 34.9296C6.04918 34.512 5.122 34.7631 4.70507 35.4896C4.69567 35.505 4.68761 35.5205 4.67888 35.5366L0.177237 44.0115C-0.210824 44.7433 0.0597442 45.6503 0.78417 46.0512L55.5324 76.3958C55.7573 76.52 56.0098 76.5852 56.2669 76.5852H78.8967C83.922 76.5805 87.9953 72.5078 88 67.4818V59.6347C87.9839 54.7174 84.1872 50.6408 79.2834 50.2748ZM62.9653 49.9499L61.2325 50.528L47.6564 32.8765L51.1462 30.2561L62.9653 49.9499ZM23.3152 14.882L31.8439 19.4595C33.0262 20.0846 33.617 21.4448 33.2672 22.7352L32.0137 26.9596L23.3045 21.7369L20.2886 19.9268L23.3152 14.882ZM14.3321 29.3625L15.1089 28.1486L20.1006 31.8614C22.6412 33.7688 23.9383 36.9102 23.4838 40.055L23.2944 44.4398L9.73443 36.6242L14.3321 29.3625ZM78.8967 73.5512H56.657L3.55364 44.1162L6.61986 38.351L56.8967 67.2797C57.1276 67.4127 57.3888 67.4825 57.6553 67.4818H84.9653C84.9653 70.8334 82.2482 73.5512 78.8967 73.5512ZM84.9653 64.4472H58.0602L47.6537 58.4557L51.1523 54.8886C51.7303 54.2824 51.7075 53.3216 51.1006 52.7435C50.5064 52.1769 49.5691 52.1863 48.9857 52.7644L44.9379 56.8914L39.172 53.5687L44.9547 48.9428C45.6086 48.4191 45.7147 47.4638 45.191 46.8092C44.6673 46.1552 43.712 46.0491 43.058 46.5728L36.3469 51.9426L31.4068 49.1019L38.9021 42.8554C39.5467 42.3189 39.634 41.3622 39.0982 40.7177C38.5618 40.0731 37.6044 39.9858 36.9598 40.5216L28.6031 47.4873L26.2573 46.1371L26.503 40.3128C27.0649 36.1166 25.3066 31.946 21.9107 29.4189L16.741 25.5752L18.6941 22.509L32.1245 30.567C32.3051 30.671 32.5052 30.7355 32.712 30.757C32.7482 30.757 32.7798 30.769 32.8167 30.7717C32.853 30.7751 32.8758 30.7825 32.9047 30.7825C33.092 30.7831 33.2786 30.7489 33.4538 30.6811L48.8232 24.7534C49.1045 24.646 49.4194 24.6829 49.6685 24.8521C49.9183 25.0233 50.0666 25.3073 50.0646 25.6108V27.2799L44.6022 31.376C43.9322 31.8795 43.7972 32.8309 44.3008 33.5002C44.3041 33.5049 44.3075 33.5096 44.3108 33.5137L59.4835 53.2383C59.8756 53.752 60.5517 53.9587 61.1647 53.7526L65.4293 52.3306L79.0638 53.3048C82.3818 53.5505 84.9526 56.3073 84.9653 59.6347V64.4472Z" fill="#FFF"/>
<path d="M9.10333 55.3437H1.51733C0.679443 55.3437 0 56.0232 0 56.8611C0 57.6989 0.679443 58.3784 1.51733 58.3784H9.10333C9.94122 58.3784 10.6207 57.6989 10.6207 56.8611C10.6207 56.0232 9.94122 55.3437 9.10333 55.3437Z" fill="#FFF"/>
<path d="M0 65.9644C0 66.8023 0.679443 67.4817 1.51733 67.4817H21.2413C22.0792 67.4817 22.7587 66.8023 22.7587 65.9644C22.7587 65.1265 22.0792 64.4471 21.2413 64.4471H1.51733C0.679443 64.4471 0 65.1265 0 65.9644Z" fill="#FFF"/>
<path d="M37.9313 73.5511H1.51733C0.679443 73.5511 0 74.2298 0 75.0677C0 75.9056 0.679443 76.5851 1.51733 76.5851H37.9313C38.7692 76.5851 39.448 75.9056 39.448 75.0677C39.448 74.2298 38.7692 73.5511 37.9313 73.5511Z" fill="#FFF"/>
</g>
</svg>
